<?xml version="1.0" encoding="UTF-8" standalone="no"?>
<!-- Created with Inkscape (http://www.inkscape.org/) -->

<svg
   xmlns:dc="http://purl.org/dc/elements/1.1/"
   xmlns:cc="http://creativecommons.org/ns#"
   xmlns:rdf="http://www.w3.org/1999/02/22-rdf-syntax-ns#"
   xmlns:svg="http://www.w3.org/2000/svg"
   xmlns="http://www.w3.org/2000/svg"
   xmlns:sodipodi="http://sodipodi.sourceforge.net/DTD/sodipodi-0.dtd"
   xmlns:inkscape="http://www.inkscape.org/namespaces/inkscape"
   width="84.666664mm"
   height="84.578476mm"
   viewBox="0 0 299.99999 299.68751"
   id="svg2"
   version="1.1"
   inkscape:version="0.91 r13725"
   sodipodi:docname="logo.svg"
   inkscape:export-filename="/home/zer0chain/recherche/firediag/fenix/logo.png"
   inkscape:export-xdpi="76.800003"
   inkscape:export-ydpi="76.800003">
  <defs
     id="defs4" />
  <sodipodi:namedview
     id="base"
     pagecolor="#ffffff"
     bordercolor="#666666"
     borderopacity="1.0"
     inkscape:pageopacity="0.0"
     inkscape:pageshadow="2"
     inkscape:zoom="1.4"
     inkscape:cx="-16.319803"
     inkscape:cy="129.10707"
     inkscape:document-units="px"
     inkscape:current-layer="g4281"
     showgrid="false"
     inkscape:window-width="1366"
     inkscape:window-height="704"
     inkscape:window-x="0"
     inkscape:window-y="27"
     inkscape:window-maximized="1"
     fit-margin-top="0"
     fit-margin-left="0"
     fit-margin-right="0"
     fit-margin-bottom="0" />
  <metadata
     id="metadata7">
    <rdf:RDF>
      <cc:Work
         rdf:about="">
        <dc:format>image/svg+xml</dc:format>
        <dc:type
           rdf:resource="http://purl.org/dc/dcmitype/StillImage" />
        <dc:title />
      </cc:Work>
    </rdf:RDF>
  </metadata>
  <g
     inkscape:label="Calque 1"
     inkscape:groupmode="layer"
     id="layer1"
     transform="translate(-214.28516,-585.41582)">
    <g
       id="g4281"
       transform="translate(0,-134.51777)">
      <path
         id="path3336"
         d="m 364.28516,719.93359 a 150,150 0 0 0 -150,150 150,150 0 0 0 137.52148,149.37501 125,125 0 0 1 -112.52148,-124.37501 125,125 0 0 1 125,-125 125,125 0 0 1 125,125 125,125 0 0 1 -116.15821,124.68751 150,150 0 0 0 141.15821,-149.68751 150,150 0 0 0 -150,-150 z"
         style="fill:#360f0f;fill-opacity:1;stroke:none"
         inkscape:connector-curvature="0" />
      <path
         style="fill:#360f0f;fill-opacity:1;stroke:none"
         d="m 364.28516,719.93359 a 125,125 0 0 0 -125,125 125,125 0 0 0 115.01758,124.49999 100,100 0 0 1 -90.01758,-99.49999 100,100 0 0 1 100,-100 100,100 0 0 1 100,100 100,100 0 0 1 -92.92578,99.74999 125,125 0 0 0 117.92578,-124.74999 125,125 0 0 0 -125,-125 z"
         id="path4285"
         inkscape:connector-curvature="0" />
      <path
         id="path3336-0"
         d="m 364.28516,719.93359 a 100,100 0 0 0 -100,100 100,100 0 0 0 92.51367,99.625 75,75 0 0 1 -67.51367,-74.625 75,75 0 0 1 75,-75 75,75 0 0 1 75,75 75,75 0 0 1 -69.69336,74.8125 100,100 0 0 0 94.69336,-99.8125 100,100 0 0 0 -100,-100 z"
         style="fill:#c41a0c;fill-opacity:1;stroke:none"
         inkscape:connector-curvature="0" />
    </g>
    <path
       style="fill:#c41a0c;fill-opacity:1;stroke:none"
       d="m 414.28516,675.41582 a 50,50 0 0 1 -50,50 50,50 0 0 1 -50,-50 50,50 0 0 1 50,-50 50,50 0 0 1 50,50 z"
       id="path3336-0-1-6"
       inkscape:connector-curvature="0" />
  </g>
</svg>
