<?xml version="1.0" encoding="UTF-8" standalone="no"?>
<!-- Created with Inkscape (http://www.inkscape.org/) -->

<svg
   xmlns:dc="http://purl.org/dc/elements/1.1/"
   xmlns:cc="http://creativecommons.org/ns#"
   xmlns:rdf="http://www.w3.org/1999/02/22-rdf-syntax-ns#"
   xmlns:svg="http://www.w3.org/2000/svg"
   xmlns="http://www.w3.org/2000/svg"
   xmlns:sodipodi="http://sodipodi.sourceforge.net/DTD/sodipodi-0.dtd"
   xmlns:inkscape="http://www.inkscape.org/namespaces/inkscape"
   width="84.666664mm"
   height="84.578476mm"
   viewBox="0 0 299.99999 299.68751"
   id="svg2"
   version="1.1"
   inkscape:version="0.91 r13725"
   sodipodi:docname="logo.svg"
   inkscape:export-filename="/home/zer0chain/recherche/firediag/fenix/logo-sm.png"
   inkscape:export-xdpi="38.400002"
   inkscape:export-ydpi="38.400002">
  <defs
     id="defs4" />
  <sodipodi:namedview
     id="base"
     pagecolor="#ffffff"
     bordercolor="#666666"
     borderopacity="1.0"
     inkscape:pageopacity="0.0"
     inkscape:pageshadow="2"
     inkscape:zoom="0.38304225"
     inkscape:cx="15.625"
     inkscape:cy="140.75667"
     inkscape:document-units="px"
     inkscape:current-layer="layer1"
     showgrid="false"
     inkscape:window-width="1366"
     inkscape:window-height="704"
     inkscape:window-x="0"
     inkscape:window-y="27"
     inkscape:window-maximized="1"
     fit-margin-top="0"
     fit-margin-left="0"
     fit-margin-right="0"
     fit-margin-bottom="0" />
  <metadata
     id="metadata7">
    <rdf:RDF>
      <cc:Work
         rdf:about="">
        <dc:format>image/svg+xml</dc:format>
        <dc:type
           rdf:resource="http://purl.org/dc/dcmitype/StillImage" />
        <dc:title />
      </cc:Work>
    </rdf:RDF>
  </metadata>
  <g
     inkscape:label="Calque 1"
     inkscape:groupmode="layer"
     id="layer1"
     transform="translate(-214.28516,-585.41582)">
    <g
       id="g4248">
      <path
         id="path3336"
         d="m 364.28516,585.41582 a 150,150 0 0 0 -150,150 150,150 0 0 0 137.52148,149.37501 125,125 0 0 1 -112.52148,-124.37501 125,125 0 0 1 125,-125 125,125 0 0 1 125,125 125,125 0 0 1 -116.15821,124.68751 150,150 0 0 0 141.15821,-149.68751 150,150 0 0 0 -150,-150 z"
         style="fill:#360f0f;fill-opacity:1;stroke:none"
         inkscape:connector-curvature="0" />
      <path
         style="fill:#360f0f;fill-opacity:1;stroke:none"
         d="m 364.28516,585.41582 a 125,125 0 0 0 -125,125 125,125 0 0 0 115.01758,124.49999 100,100 0 0 1 -90.01758,-99.49999 100,100 0 0 1 100,-100 100,100 0 0 1 100,100 100,100 0 0 1 -92.92578,99.74999 125,125 0 0 0 117.92578,-124.74999 125,125 0 0 0 -125,-125 z"
         id="path4285"
         inkscape:connector-curvature="0" />
      <path
         id="path3336-0"
         d="m 364.28516,585.41582 a 100,100 0 0 0 -100,100 100,100 0 0 0 92.51367,99.625 75,75 0 0 1 -67.51367,-74.625 75,75 0 0 1 75,-75 75,75 0 0 1 75,75 75,75 0 0 1 -69.69336,74.8125 100,100 0 0 0 94.69336,-99.8125 100,100 0 0 0 -100,-100 z"
         style="fill:#c41a0c;fill-opacity:1;stroke:none"
         inkscape:connector-curvature="0" />
      <path
         inkscape:connector-curvature="0"
         id="path3336-0-1-6"
         d="m 414.28516,675.41582 a 50,50 0 0 1 -50,50 50,50 0 0 1 -50,-50 50,50 0 0 1 50,-50 50,50 0 0 1 50,50 z"
         style="fill:#c41a0c;fill-opacity:1;stroke:none" />
    </g>
    <path
       inkscape:connector-curvature="0"
       d="m 364.78516,625.74591 a 50,50 0 0 1 49.5,49.98242 50,50 0 0 1 -49.5,49.97461 l 0,-99.95703 z m 0,-39.99219 a 100,100 0 0 1 99.5,99.97461 100,100 0 0 1 -92.51367,99.625 75,75 0 0 0 67.51367,-74.625 75,75 0 0 0 -74.5,-74.98242 l 0,-49.99219 z m 0,0 a 125,125 0 0 1 124.5,124.97461 125,125 0 0 1 -115.01758,124.5 100,100 0 0 0 90.01758,-99.5 100,100 0 0 0 -99.5,-99.98242 l 0,-49.99219 z m 0,0 c 82.63748,0.27546 149.48647,67.33668 149.5,149.97461 -0.0546,77.96459 -59.82712,142.88913 -137.52148,149.375 63.88239,-6.40928 112.52118,-60.1719 112.52148,-124.375 -0.009,-68.83394 -55.66661,-124.70709 -124.5,-124.98242 z"
       style="fill:#020202;fill-opacity:0.19607843;stroke:none"
       id="path3336-0-1-6-4-3" />
    <g
       id="g4319-6-7"
       transform="matrix(-1,0,0,1,-165.42968,-66.106432)">
      <path
         sodipodi:nodetypes="cccccc"
         inkscape:connector-curvature="0"
         id="path3336-4-7-7"
         transform="translate(214.28516,585.41582)"
         d="m -196.75,-8.8808594 c -82.63748,0.2754587 -149.48647,67.3366754 -149.5,149.9746094 0.0546,77.96459 59.82712,142.88913 137.52148,149.375 -63.88239,-6.40928 -112.52118,-60.1719 -112.52148,-124.375 0.009,-68.833943 55.66661,-124.707087 124.5,-124.982422 z"
         style="fill:#360f0f;fill-opacity:1;stroke:none" />
      <path
         id="path4285-3-2-2"
         transform="translate(214.28516,585.41582)"
         d="m -196.75,-8.8808594 a 125,125 0 0 0 -124.5,124.9746094 125,125 0 0 0 115.01758,124.5 100,100 0 0 1 -90.01758,-99.5 100,100 0 0 1 99.5,-99.982422 l 0,-49.9921874 z"
         style="fill:#360f0f;fill-opacity:1;stroke:none"
         inkscape:connector-curvature="0" />
      <path
         id="path3336-0-7-3-4"
         transform="translate(214.28516,585.41582)"
         d="m -196.75,-8.8808594 a 100,100 0 0 0 -99.5,99.9746094 100,100 0 0 0 92.51367,99.625 75,75 0 0 1 -67.51367,-74.625 75,75 0 0 1 74.5,-74.982422 l 0,-49.9921874 z"
         style="fill:#c41a0c;fill-opacity:1;stroke:none"
         inkscape:connector-curvature="0" />
      <path
         id="path3336-0-1-6-4-3-2"
         transform="translate(214.28516,585.41582)"
         d="m -196.75,31.111328 a 50,50 0 0 0 -49.5,49.982422 50,50 0 0 0 49.5,49.97461 l 0,-99.957032 z"
         style="fill:#c41a0c;fill-opacity:1;stroke:none"
         inkscape:connector-curvature="0" />
    </g>
  </g>
</svg>
