<?xml version="1.0" encoding="UTF-8" standalone="no"?>
<svg
   xmlns:dc="http://purl.org/dc/elements/1.1/"
   xmlns:cc="http://creativecommons.org/ns#"
   xmlns:rdf="http://www.w3.org/1999/02/22-rdf-syntax-ns#"
   xmlns:svg="http://www.w3.org/2000/svg"
   xmlns="http://www.w3.org/2000/svg"
   xmlns:sodipodi="http://sodipodi.sourceforge.net/DTD/sodipodi-0.dtd"
   xmlns:inkscape="http://www.inkscape.org/namespaces/inkscape"
   version="1.1"
   id="svg2"
   viewBox="0 0 299.99999 299.68751"
   height="84.578476mm"
   width="84.666664mm"
   inkscape:version="0.91 r13725"
   sodipodi:docname="logo.svg"
   inkscape:export-filename="/home/zer0chain/recherche/firediag/fenix/docs/logo.png"
   inkscape:export-xdpi="76.880081"
   inkscape:export-ydpi="76.880081">
  <sodipodi:namedview
     pagecolor="#1f1f1f"
     bordercolor="#666666"
     borderopacity="1"
     objecttolerance="10"
     gridtolerance="10"
     guidetolerance="10"
     inkscape:pageopacity="0"
     inkscape:pageshadow="2"
     inkscape:window-width="1920"
     inkscape:window-height="1163"
     id="namedview4756"
     showgrid="false"
     inkscape:zoom="0.78748693"
     inkscape:cx="-91.970967"
     inkscape:cy="149.84376"
     inkscape:window-x="1366"
     inkscape:window-y="0"
     inkscape:window-maximized="1"
     inkscape:current-layer="g4248" />
  <defs
     id="defs4" />
  <metadata
     id="metadata7">
    <rdf:RDF>
      <cc:Work
         rdf:about="">
        <dc:format>image/svg+xml</dc:format>
        <dc:type
           rdf:resource="http://purl.org/dc/dcmitype/StillImage" />
        <dc:title />
      </cc:Work>
    </rdf:RDF>
  </metadata>
  <g
     id="g4248"
     transform="translate(-214.28516,-585.41582)">
    <path
       inkscape:connector-curvature="0"
       id="path3336"
       d="m 364.28516,585.41582 a 150,150 0 0 0 -150,150 150,150 0 0 0 137.52148,149.37501 125,125 0 0 1 -112.52148,-124.37501 125,125 0 0 1 125,-125 125,125 0 0 1 125,125 125,125 0 0 1 -116.15821,124.68751 150,150 0 0 0 141.15821,-149.68751 150,150 0 0 0 -150,-150 z"
       style="fill:#c41a0c;fill-opacity:1;stroke:none" />
    <path
       inkscape:connector-curvature="0"
       style="fill:#e72727;fill-opacity:0.41176471;stroke:none"
       d="m 364.28516,585.41582 a 125,125 0 0 0 -125,125 125,125 0 0 0 115.01758,124.49999 100,100 0 0 1 -90.01758,-99.49999 100,100 0 0 1 100,-100 100,100 0 0 1 100,100 100,100 0 0 1 -92.92578,99.74999 125,125 0 0 0 117.92578,-124.74999 125,125 0 0 0 -125,-125 z"
       id="path4285" />
    <path
       inkscape:connector-curvature="0"
       id="path3336-0"
       d="m 364.28516,585.41582 a 100,100 0 0 0 -100,100 100,100 0 0 0 92.51367,99.625 75,75 0 0 1 -67.51367,-74.625 75,75 0 0 1 75,-75 75,75 0 0 1 75,75 75,75 0 0 1 -69.69336,74.8125 100,100 0 0 0 94.69336,-99.8125 100,100 0 0 0 -100,-100 z"
       style="fill:#c41a0c;fill-opacity:0.81410259;stroke:none" />
  </g>
</svg>
